<?xml version="1.0" encoding="UTF-8" standalone="no"?>
<svg
   id="Layer_1"
   version="1.1"
   viewBox="0 0 507.05901 955.44045"
   sodipodi:docname="pipfugl.svg"
   inkscape:version="1.4 (e7c3feb1, 2024-10-09)"
   width="507.05902"
   height="955.44043"
   xmlns:inkscape="http://www.inkscape.org/namespaces/inkscape"
   xmlns:sodipodi="http://sodipodi.sourceforge.net/DTD/sodipodi-0.dtd"
   xmlns="http://www.w3.org/2000/svg"
   xmlns:svg="http://www.w3.org/2000/svg">
  <sodipodi:namedview
     id="namedview15"
     pagecolor="#ffffff"
     bordercolor="#000000"
     borderopacity="0.25"
     inkscape:showpageshadow="2"
     inkscape:pageopacity="0.0"
     inkscape:pagecheckerboard="0"
     inkscape:deskcolor="#d1d1d1"
     inkscape:zoom="0.44057928"
     inkscape:cx="266.69434"
     inkscape:cy="444.86886"
     inkscape:window-width="1568"
     inkscape:window-height="851"
     inkscape:window-x="110"
     inkscape:window-y="63"
     inkscape:window-maximized="0"
     inkscape:current-layer="Layer_1" />
  <!-- Generator: Adobe Illustrator 29.1.0, SVG Export Plug-In . SVG Version: 2.1.0 Build 142)  -->
  <defs
     id="defs1">
    <style
       id="style1">
      .st0 {
        fill: #231f20;
      }

      .st1, .st2 {
        font-family: Helvetica, Helvetica;
        font-size: 6px;
      }

      .st3 {
        fill: #f2c851;
      }

      .st4 {
        stroke-width: 1.2px;
      }

      .st4, .st5, .st2 {
        fill: none;
        stroke-miterlimit: 10;
      }

      .st4, .st2 {
        stroke: #fff;
      }

      .st6 {
        fill: #fff;
      }

      .st5 {
        stroke: #000;
        stroke-width: .2px;
      }

      .st7 {
        fill: #f36f2f;
      }

      .st2 {
        stroke-width: .4px;
      }
    </style>
  </defs>
  <g
     id="g10"
     transform="translate(-206.63354,-138.39346)">
    <path
       class="st0"
       d="m 328.4,702.5 c 0,0 37.5,-13.7 41.3,-3.2 3.8,10.5 5.1,73.3 6.3,83.5 1.3,10.2 10.5,44.8 8.3,57.1 -2.2,12.4 -6.3,84.4 -7.6,100.3 -1.3,15.9 -1.6,40.3 -6,58.7 -4.4,18.4 -5.7,34.3 -6.4,40.6 0,0 -32.7,2.5 -51.4,10.8 -18.7,8.3 -30.5,17.8 -15.6,11.1 14.9,-6.7 63.8,-19.7 43.2,-5.1 -20.6,14.6 -27.3,17.8 -36.5,26 -9.2,8.3 -13.7,17.8 1.3,6 14.9,-11.7 47.3,-36.2 42.9,-18.7 -4.4,17.5 11.4,33.6 12.4,14.9 1,-18.7 1.6,-36.8 20.6,-36.5 19,0.3 39.7,-2.9 17.1,-4.4 -22.5,-1.6 -30.2,-3.5 -30.2,-3.5 0,0 1.3,-22.5 5.1,-34.6 3.8,-12.1 8.3,-51.7 9.8,-70.5 1.6,-18.7 4.1,-84.1 5.4,-93.3 1.3,-9.2 -2.2,-63.2 -4.4,-81.9 -2.2,-18.7 -2.9,-44.1 -2.9,-49.8 0,-5.7 -1.9,-11.1 5.1,-14 7,-2.9 47.9,-28.6 46,-8.9 -1.9,19.7 -13.3,100.9 -15.6,132.4 -2.2,31.4 6.7,118.1 14,148.2 7.3,30.2 14.9,59 14.9,59 0,0 -15.6,-0.3 -15.2,9.8 0.3,10.2 2.2,-1.9 4.1,-3.8 1.9,-1.9 6,-2.9 9.2,-2.5 3.2,0.3 5.4,31.7 9.8,43.8 4.4,12.1 10.8,14.6 6,-3.8 -4.8,-18.4 -4.8,-32.4 4.8,-24.4 9.5,7.9 20.3,14.3 29.8,20.6 9.5,6.4 24.4,12.7 -1.3,-7 -25.7,-19.7 -30.5,-25.7 -15.6,-23.8 14.9,1.9 51.7,14 60.6,16.2 8.9,2.2 34,-0.6 0.3,-9.8 -33.7,-9.2 -60.3,-14.9 -86.7,-15.6 0,0 -21,-69.5 -24.1,-100.3 -3.2,-30.8 -5.4,-90.2 -2.9,-115.2 2.5,-25.1 14.3,-128.6 17.8,-136.5 3.5,-7.9 20.3,-23.5 30.2,-37.1 9.8,-13.6 29.2,-49.5 -10.2,-79.4 0,0 1.3,-52.4 -1.3,-87.3 -2.5,-34.9 -3.2,-53.3 -2.5,-59 0.6,-5.7 -0.6,-23.8 11.4,-5.1 12.1,18.7 40.3,61.3 19.4,18.1 -21,-43.2 -21.3,-51.7 -8.3,-43.5 13,8.3 164.8,107 187.6,119.7 22.9,12.7 64.1,29.8 35.6,-0.3 -28.6,-30.2 -190.1,-181.3 -190.1,-181.3 0,0 17.8,-30.5 -10.8,-71.4 -28.6,-40.9 -61.3,-46.3 -71.7,-22.5 -10.5,23.8 -16.2,-37.5 -15.9,-50.5 0.3,-13 -15.6,-57.8 -10.8,-24.1 4.8,33.6 25.4,110.2 -2.9,67 -28.3,-43.2 -68.3,-83.8 -41,-46 27.3,37.8 68.2,82.9 20.3,56.2 -47.9,-26.7 -90.8,-44.4 -65.7,-21.3 25.1,23.2 80.6,25.1 60.3,37.8 -20.3,12.7 -7.6,61.9 -4.1,69.2 3.5,7.3 7.6,7.3 -11.1,16.5 -18.7,9.2 -38.7,22.9 -45.1,27.6 -6.3,4.8 -19.7,23.2 0,8.9 19.7,-14.3 78.1,-55.9 57.8,-22.9 -20.3,33 -40,84.4 -19.7,51.1 20.3,-33.3 33.3,-56.2 36.8,-53.6 3.5,2.5 8.6,4.4 5.1,16.2 -3.5,11.7 -2.9,17.8 -8.9,41.6 -6,23.8 -1,22.9 7.3,-2.2 8.3,-25.1 14.3,-40 22.9,-37.8 8.6,2.2 -0.3,35.2 -1.9,45.1 -1.6,9.8 -6.3,49.5 1.3,19 7.6,-30.5 19.4,-80.6 21,-50.8 1.6,29.8 10.8,58.7 11.7,89.2 1,30.5 6,88.6 -12.7,89.2 -18.7,0.6 -42.5,-3.8 -81.9,4.8 -39.4,8.6 -66.3,40 -62.5,13 3.8,-27 7.9,-84.1 7.3,-98.7 -0.6,-14.6 -5.7,-26 -5.7,-4.1 0,21.9 -3.5,80.9 -5.7,93.3 -2.2,12.4 -3.5,27.6 -13.7,-10.5 -10.2,-38.1 -16.8,-59.7 -19.4,-69.8 -2.5,-10.2 -14.6,-36.2 -7.9,-5.4 6.7,30.8 23.2,90.5 25.4,101.6 2.2,11.1 0.6,33.7 -22.9,-7 -23.5,-40.6 -23.2,-41 -28.9,-52.4 -5.7,-11.4 -21.3,-26 -8.9,0.3 12.4,26.3 40.6,69.2 47.9,78.4 7.3,9.2 9.8,14.3 7,23.2 -2.9,8.9 -3.2,22.2 10.2,30.5 0,0 -9.8,18.1 19.4,33.7 0,0 -11.1,39 32.4,21"
       id="path1" />
    <path
       class="st7"
       d="m 434.3,619.6 c 0,0 2.2,-35.4 4.4,-46.5 2.2,-11.1 4.1,-14.6 -8.9,-13.9 -13,0.6 -62.6,-4.7 -98.4,11.7 -35.7,16.5 -43,17.4 -44.6,25.6 -1.6,8.2 -0.8,15 -5.3,14.2 -4.5,-0.7 -8.7,2 -10.6,7.2 -1.9,5.2 -3.2,9.5 10,15.2 13.2,5.8 48.3,12.1 82.9,6.1 34.6,-5.9 70.4,-19.7 70.4,-19.7"
       id="path2" />
    <path
       class="st7"
       d="m 463.2,573.9 c 0,0 0.6,16.9 5.8,18.2 5.2,1.3 8.2,-7.6 4.5,-14.5 -3.7,-6.9 -11.2,-13.8 -10.2,-3.7"
       id="path3" />
    <path
       class="st7"
       d="m 326.6,657.7 c 0,0 85.3,-15.4 117.3,-33.6 32,-18.2 43.5,-14.1 27.5,-1.7 -16,12.5 -45.2,28.4 -80.8,39.4 -35.7,11 -63,15.2 -86.4,5.9 -23.4,-9.3 -12.8,-17.3 -5.4,-13.6 7.4,3.7 20.1,4.8 27.9,3.5"
       id="path4" />
    <path
       class="st7"
       d="m 322.5,684.3 c 0,0 29.9,-2.4 43.9,-7.6 13.9,-5.2 26.2,-5.4 12.3,1.1 -13.9,6.5 -48.7,18.4 -59.8,16.7 -11.2,-1.7 -19.7,-7.4 -16.7,-12.1 3,-4.6 14.5,2.4 20.4,1.9"
       id="path5" />
    <path
       class="st6"
       d="m 446.1,305.8 c 0,0 -5.3,-26.8 -34.7,-48.2 -29.4,-21.4 -41,-0.4 -43.1,6.5 -2.1,6.8 -0.4,39.1 15.6,59.4 15.9,20.3 36.8,39.5 52.4,31.3 15.6,-8.2 13.9,-36.1 9.9,-49"
       id="path6" />
    <path
       class="st6"
       d="m 500.4,254.3 c 0,0 -21.4,-41.4 -53.7,-37.2 -32.3,4.2 -9.9,58.1 -1.7,69.6 8.2,11.6 34.2,49.1 59.6,34.5 25.4,-14.6 -4.2,-67 -4.2,-67"
       id="path7" />
    <path
       class="st3"
       d="m 458.3,360.6 218.8,131.9 c 0,0 23.1,12.1 -0.6,-11 -23.7,-23.2 -160.7,-149.9 -160.7,-149.9 0,0 -1.9,-4.2 -9.1,-0.6 -7.2,3.6 -32.8,0.4 -45,-12.3 -12.1,-12.7 -4.9,2.8 -5.7,8.7 -0.8,5.9 -0.4,15 -3.2,20.7 -2.8,5.7 -1.5,8.2 5.5,12.5"
       id="path8" />
    <path
       class="st0"
       d="m 451.4,318.9 c 0,6.4 -5.2,11.6 -11.6,11.6 -6.4,0 -11.6,-5.2 -11.6,-11.6 0,-6.4 5.2,-11.6 11.6,-11.6 6.4,0 11.6,5.2 11.6,11.6"
       id="path9" />
    <path
       class="st0"
       d="m 485.2,306 c 0,6.4 -5.2,11.6 -11.6,11.6 -6.4,0 -11.6,-5.2 -11.6,-11.6 0,-6.4 5.2,-11.6 11.6,-11.6 6.4,0 11.6,5.2 11.6,11.6"
       id="path10" />
  </g>
</svg>
